<?xml version="1.0" encoding="utf-8"?>
<!-- Generator: Adobe Illustrator 24.2.3, SVG Export Plug-In . SVG Version: 6.00 Build 0)  -->
<svg version="1.1" id="Layer_05" xmlns="http://www.w3.org/2000/svg" xmlns:xlink="http://www.w3.org/1999/xlink" x="0px" y="0px"
	 viewBox="0 0 117.6 117.6" style="enable-background:new 0 0 117.6 117.6;" xml:space="preserve">
<style type="text/css">
	.st0{fill:#FFFFFF;}
</style>
<path class="st0" d="M35.3,39.7c2.7,0,5.7,0.3,8.4,1c0.9,0.3,1.9,0.6,2.7,1c0.7,0.3,1.4,0.7,2,1.2c0.5,0.4,0.9,0.8,1.2,1.3
	c0.2,0.4,0.4,0.8,0.4,1.3s-0.1,0.9-0.4,1.3c-0.3,0.5-0.7,1-1.2,1.3c-0.6,0.5-1.3,0.9-2,1.2c-0.9,0.4-1.8,0.7-2.7,1
	c-2.7,0.7-5.6,1-8.4,1c-2.7,0-5.7-0.3-8.4-1c-0.9-0.3-1.9-0.6-2.7-1c-0.7-0.3-1.4-0.7-2-1.2c-0.5-0.4-0.9-0.8-1.2-1.3
	c-0.2-0.4-0.4-0.8-0.4-1.3s0.1-0.9,0.4-1.3c0.3-0.5,0.7-1,1.2-1.3c0.6-0.5,1.3-0.9,2-1.2c0.9-0.4,1.8-0.7,2.7-1
	C29.5,40,32.5,39.7,35.3,39.7z"/>
<path class="st0" d="M35.3,66.2c2.7,0,5.7,0.3,8.4,1c0.9,0.3,1.9,0.6,2.7,1c0.7,0.3,1.4,0.7,2,1.2c0.5,0.4,0.9,0.8,1.2,1.3
	c0.2,0.4,0.4,0.8,0.4,1.3s-0.1,0.9-0.4,1.3c-0.3,0.5-0.7,1-1.2,1.3c-0.6,0.5-1.3,0.9-2,1.2c-0.9,0.4-1.8,0.7-2.7,1
	c-2.7,0.7-5.6,1-8.4,1c-2.7,0-5.7-0.3-8.4-1c-0.9-0.3-1.9-0.6-2.7-1c-0.7-0.3-1.4-0.7-2-1.2c-0.5-0.4-0.9-0.8-1.2-1.3
	c-0.2-0.4-0.4-0.8-0.4-1.3s0.1-0.9,0.4-1.3c0.3-0.5,0.7-1,1.2-1.3c0.6-0.5,1.3-0.9,2-1.2c0.9-0.4,1.8-0.7,2.7-1
	C29.5,66.5,32.5,66.2,35.3,66.2z"/>
<path class="st0" d="M0,58.8c0-3.6,0.3-7.2,1-10.7c0.7-3.7,1.7-7.4,3.1-11c3-7.5,7.4-14.3,13.1-19.9c5.7-5.7,12.5-10.1,19.9-13.1
	c3.5-1.4,7.2-2.5,11-3.1c3.5-0.7,7.1-1,10.7-1S66,0.3,69.5,1c3.7,0.7,7.4,1.7,11,3.1c7.5,3,14.3,7.4,19.9,13.1
	c5.7,5.7,10.1,12.5,13.1,19.9c1.4,3.5,2.5,7.2,3.1,11c0.7,3.5,1,7.1,1,10.7c0,3.6-0.3,7.2-1,10.7c-0.7,3.7-1.7,7.4-3.1,11
	c-3,7.5-7.4,14.3-13.1,19.9c-5.7,5.7-12.5,10.1-19.9,13.1c-3.5,1.4-7.2,2.5-11,3.1c-3.5,0.7-7.1,1-10.7,1s-7.2-0.3-10.7-1
	c-3.7-0.7-7.4-1.7-11-3.1c-7.5-3-14.3-7.4-19.9-13.1C11.5,94.7,7.1,87.9,4.1,80.5C2.7,77,1.6,73.3,1,69.5C0.3,66,0,62.4,0,58.8z
	 M8.8,58.8c0,6.3,1.2,12.5,3.5,18.4c2.5,6.4,6.3,12.1,11.1,17c4.8,4.8,10.6,8.6,17,11.1c5.9,2.3,12.1,3.5,18.4,3.5
	s12.5-1.2,18.4-3.5c6.4-2.5,12.1-6.3,17-11.1c4.8-4.8,8.6-10.6,11.1-17c2.3-5.9,3.5-12.1,3.5-18.4s-1.2-12.5-3.5-18.4
	c-2.5-6.4-6.3-12.1-11.1-17c-4.8-4.8-10.6-8.6-17-11.1C71.3,10,65.1,8.8,58.8,8.8S46.3,10,40.4,12.3c-6.4,2.5-12.1,6.3-17,11.1
	c-4.8,4.8-8.6,10.6-11.1,17C10,46.3,8.8,52.5,8.8,58.8z"/>
<path class="st0" d="M58.8,97.1c0-2.9,0-5.8,0-8.7c0,0,0,0,0-0.1l0,0l0,0l0,0l0,0h0.1c0.1,0,0.1,0,0.2,0s0.3,0,0.4,0
	c0.3,0,0.5,0,0.8,0c0.5,0,1-0.1,1.6-0.1c1.1-0.1,2.1-0.3,3.2-0.5c4.5-1,8.7-3,12.3-5.9c3.9-3.2,7-7.3,8.9-12
	c0.9-2.2,1.5-4.5,1.8-6.8c0.3-2.2,0.4-4.4,0.2-6.6c-0.4-4.7-1.9-9.2-4.4-13.1c-2.6-4.2-6.3-7.6-10.6-10c-4-2.2-8.4-3.5-12.9-3.7
	c-0.3,0-0.5,0-0.8,0c-0.1,0-0.3,0-0.4,0h-0.1l0,0l0,0l0,0l0,0l0,0l0,0l0,0c0-0.1,0-0.2,0-0.3c0-0.7,0-1.5,0-2.2c0-1.5,0-3,0-4.5
	c0-0.4,0-0.7,0-1.1c0-0.2,0-0.4,0-0.6v-0.1l0,0l0,0l0,0l0,0l0,0l0,0c0.1,0,0.1,0,0.2,0c0.5,0,1,0,1.6,0c1.1,0.1,2.1,0.1,3.2,0.3
	c4.6,0.6,9.1,2.1,13.2,4.3c4.3,2.4,8.2,5.5,11.3,9.4c3.2,3.9,5.6,8.4,7,13.2c0.7,2.3,1.2,4.6,1.4,6.9c0.2,2.2,0.3,4.5,0.1,6.7
	c-0.3,4.6-1.5,9.2-3.4,13.4c-2.1,4.5-5,8.6-8.6,12c-3.7,3.4-7.9,6.1-12.6,7.9C68,96.2,63.4,97.1,58.8,97.1z"/>
</svg>
