<?xml version="1.0" encoding="utf-8"?>
<!-- Generator: Adobe Illustrator 24.2.3, SVG Export Plug-In . SVG Version: 6.00 Build 0)  -->
<svg version="1.1" id="Layer_05" xmlns="http://www.w3.org/2000/svg" xmlns:xlink="http://www.w3.org/1999/xlink" x="0px" y="0px"
	 viewBox="0 0 117.6 117.6" style="enable-background:new 0 0 117.6 117.6;" xml:space="preserve">
<style type="text/css">
	.st0{fill:#EFEEEB;}
</style>
<path class="st0" d="M77.9,35.3c0,2.7-0.3,5.7-1,8.4c-0.3,0.9-0.6,1.9-1,2.7c-0.3,0.7-0.7,1.4-1.2,2c-0.4,0.5-0.8,0.9-1.3,1.2
	C73,49.8,72.6,50,72.1,50s-0.9-0.1-1.3-0.4c-0.5-0.3-1-0.7-1.3-1.2c-0.5-0.6-0.9-1.3-1.2-2c-0.4-0.9-0.7-1.8-1-2.7
	c-0.7-2.7-1-5.6-1-8.4c0-2.7,0.3-5.7,1-8.4c0.3-0.9,0.6-1.9,1-2.7c0.3-0.7,0.7-1.4,1.2-2c0.4-0.5,0.8-0.9,1.3-1.2
	c0.4-0.2,0.8-0.4,1.3-0.4s0.9,0.1,1.3,0.4c0.5,0.3,1,0.7,1.3,1.2c0.5,0.6,0.9,1.3,1.2,2c0.4,0.9,0.7,1.8,1,2.7
	C77.6,29.5,77.9,32.5,77.9,35.3z"/>
<path class="st0" d="M51.4,35.3c0,2.7-0.3,5.7-1,8.4c-0.3,0.9-0.6,1.9-1,2.7c-0.3,0.7-0.7,1.4-1.2,2c-0.4,0.5-0.8,0.9-1.3,1.2
	c-0.4,0.2-0.8,0.4-1.3,0.4s-0.9-0.1-1.3-0.4c-0.5-0.3-1-0.7-1.3-1.2c-0.5-0.6-0.9-1.3-1.2-2c-0.4-0.9-0.7-1.8-1-2.7
	c-0.7-2.7-1-5.6-1-8.4c0-2.7,0.3-5.7,1-8.4c0.3-0.9,0.6-1.9,1-2.7c0.3-0.7,0.7-1.4,1.2-2c0.4-0.5,0.8-0.9,1.3-1.2
	c0.4-0.2,0.8-0.4,1.3-0.4s0.9,0.1,1.3,0.4c0.5,0.3,1,0.7,1.3,1.2c0.5,0.6,0.9,1.3,1.2,2c0.4,0.9,0.7,1.8,1,2.7
	C51.1,29.5,51.4,32.5,51.4,35.3z"/>
<path class="st0" d="M58.8,0c3.6,0,7.2,0.3,10.7,1c3.7,0.7,7.4,1.7,11,3.1c7.5,3,14.3,7.4,19.9,13.1c5.7,5.7,10.1,12.5,13.1,19.9
	c1.4,3.5,2.5,7.2,3.1,11c0.7,3.5,1,7.1,1,10.7s-0.3,7.2-1,10.7c-0.7,3.7-1.7,7.4-3.1,11c-3,7.5-7.4,14.3-13.1,19.9
	c-5.7,5.7-12.5,10.1-19.9,13.1c-3.5,1.4-7.2,2.5-11,3.1c-3.5,0.7-7.1,1-10.7,1c-3.6,0-7.2-0.3-10.7-1c-3.7-0.7-7.4-1.7-11-3.1
	c-7.5-3-14.3-7.4-19.9-13.1C11.5,94.7,7.1,87.9,4.1,80.5C2.7,77,1.6,73.3,1,69.5C0.3,66,0,62.4,0,58.8s0.3-7.2,1-10.7
	c0.7-3.7,1.7-7.4,3.1-11c3-7.5,7.4-14.3,13.1-19.9c5.7-5.7,12.5-10.1,19.9-13.1c3.5-1.4,7.2-2.5,11-3.1C51.6,0.3,55.2,0,58.8,0z
	 M58.8,8.8c-6.3,0-12.5,1.2-18.4,3.5c-6.4,2.5-12.1,6.3-17,11.1c-4.8,4.8-8.6,10.6-11.1,17C10,46.3,8.8,52.5,8.8,58.8
	s1.2,12.5,3.5,18.4c2.5,6.4,6.3,12.1,11.1,17c4.8,4.8,10.6,8.6,17,11.1c5.9,2.3,12.1,3.5,18.4,3.5s12.5-1.2,18.4-3.5
	c6.4-2.5,12.1-6.3,17-11.1c4.8-4.8,8.6-10.6,11.1-17c2.3-5.9,3.5-12.1,3.5-18.4s-1.2-12.5-3.5-18.4c-2.5-6.4-6.3-12.1-11.1-17
	c-4.8-4.8-10.6-8.6-17-11.1C71.3,10,65.1,8.8,58.8,8.8z"/>
<path class="st0" d="M20.5,58.8c2.9,0,5.8,0,8.7,0c0,0,0,0,0.1,0l0,0l0,0l0,0l0,0v0.1c0,0.1,0,0.1,0,0.2s0,0.3,0,0.4
	c0,0.3,0,0.5,0,0.8c0,0.5,0.1,1,0.1,1.6c0.1,1.1,0.3,2.1,0.5,3.2c1,4.5,3,8.7,5.9,12.3c3.2,3.9,7.3,7,12,8.9
	c2.2,0.9,4.5,1.5,6.8,1.8c2.2,0.3,4.4,0.4,6.6,0.2c4.7-0.4,9.2-1.9,13.1-4.4c4.2-2.6,7.6-6.3,10-10.6c2.2-4,3.5-8.4,3.7-12.9
	c0-0.3,0-0.5,0-0.8c0-0.1,0-0.3,0-0.4v-0.1l0,0l0,0l0,0l0,0l0,0l0,0l0,0c0.1,0,0.2,0,0.3,0c0.7,0,1.5,0,2.2,0c1.5,0,3,0,4.5,0
	c0.4,0,0.7,0,1.1,0c0.2,0,0.4,0,0.6,0h0.1l0,0l0,0l0,0l0,0l0,0l0,0c0,0.1,0,0.1,0,0.2c0,0.5,0,1,0,1.6c-0.1,1.1-0.1,2.1-0.3,3.2
	c-0.6,4.6-2.1,9.1-4.3,13.2c-2.4,4.3-5.5,8.2-9.4,11.3c-3.9,3.2-8.4,5.6-13.2,7c-2.3,0.7-4.6,1.2-6.9,1.4c-2.2,0.2-4.5,0.3-6.7,0.1
	c-4.6-0.3-9.2-1.5-13.4-3.4c-4.5-2.1-8.6-5-12-8.6c-3.4-3.7-6.1-7.9-7.9-12.6C21.4,68,20.5,63.4,20.5,58.8z"/>
</svg>
